<?xml version="1.0" standalone="no"?>
<!DOCTYPE svg PUBLIC "-//W3C//DTD SVG 20010904//EN"
 "http://www.w3.org/TR/2001/REC-SVG-20010904/DTD/svg10.dtd">
<svg version="1.0" xmlns="http://www.w3.org/2000/svg"
 width="750.000000pt" height="420.000000pt" viewBox="0 0 750.000000 420.000000"
 preserveAspectRatio="xMidYMid meet">
<metadata>
Created by potrace 1.15, written by Peter Selinger 2001-2017
</metadata>
<g transform="translate(0.000000,420.000000) scale(0.100000,-0.100000)"
fill="#000000" stroke="none">
<path d="M0 2100 l0 -2100 65 0 c44 0 65 4 65 12 0 9 3 9 12 0 17 -17 569 -17
586 0 9 9 12 9 12 0 0 -18 1613 -13 1632 5 16 17 28 16 28 -2 0 -13 53 -15
437 -13 l436 3 13 40 13 40 -2 -42 -3 -43 42 0 42 0 -9 35 c-6 22 -6 41 0 52
5 10 7 31 4 46 -5 26 -3 28 19 22 24 -6 26 -4 30 40 8 70 28 82 28 16 0 -44 3
-52 18 -49 9 1 23 -1 30 -5 15 -10 16 15 1 30 -12 12 -4 33 12 33 6 0 8 -4 4
-9 -3 -5 -1 -12 4 -16 17 -10 31 -75 21 -98 -5 -12 -9 -16 -9 -9 -1 7 -12 25
-26 40 -21 22 -27 25 -35 12 -5 -8 -6 -17 -2 -20 19 -14 43 -74 38 -94 l-6
-23 119 -2 120 -1 11 36 c7 19 10 46 7 60 -5 27 15 165 33 221 7 21 26 73 42
116 26 66 38 83 74 108 31 21 44 37 44 54 0 70 55 194 76 172 8 -8 6 -276 -2
-289 -3 -5 0 -16 7 -24 16 -20 5 -28 -37 -29 -21 0 -34 5 -34 13 0 18 -18 15
-22 -5 -2 -9 0 -57 3 -107 3 -50 2 -93 -3 -94 -4 -2 -8 -16 -8 -30 0 -15 -9
-62 -20 -106 -11 -43 -20 -82 -20 -87 0 -5 29 -9 64 -9 56 0 67 3 81 23 l17
22 -7 -22 c-6 -21 -3 -23 31 -23 23 0 42 6 50 18 13 16 13 16 14 0 0 -13 8
-18 25 -18 26 0 26 0 8 24 -10 13 -22 21 -28 19 -5 -3 -5 -1 1 6 13 14 44 4
44 -13 0 -8 11 -11 32 -8 26 4 30 2 25 -12 -4 -10 -1 -16 7 -16 7 0 12 10 11
22 -1 15 -9 22 -24 23 -13 1 -28 9 -33 19 -6 11 -16 15 -29 11 -24 -8 -24 5 1
52 13 25 31 40 57 50 51 17 50 18 51 -29 3 -58 15 -101 32 -106 9 -3 11 2 7
17 -7 27 9 37 22 14 10 -17 10 -16 11 3 0 11 -3 23 -6 27 -4 3 -8 23 -9 44 -2
21 -4 43 -6 48 -2 6 18 33 44 60 l47 50 0 -55 c0 -30 -4 -69 -9 -87 -6 -21 -5
-35 2 -42 8 -8 8 -11 -2 -11 -7 0 -10 -7 -7 -17 2 -10 7 -28 11 -40 5 -17 2
-23 -9 -23 -9 0 -16 7 -16 15 0 23 -21 18 -27 -6 -4 -16 -12 -20 -29 -16 -15
3 -24 -1 -24 -8 0 -10 25 -13 90 -14 l90 -1 0 100 c0 89 2 100 18 99 10 0 12
-3 5 -6 -21 -8 -15 -44 7 -50 11 -3 20 -12 20 -21 0 -22 13 -6 15 18 1 11 -5
20 -12 20 -8 0 -11 5 -8 10 9 14 17 12 45 -11 24 -20 24 -20 2 -14 -26 7 -27
3 -8 -33 7 -15 13 -46 11 -69 -2 -41 -1 -43 25 -43 27 0 59 25 47 37 -4 3 -2
13 3 22 5 10 11 43 14 75 4 53 3 58 -20 66 -13 5 -24 12 -24 15 0 4 5 3 11 0
6 -4 16 1 23 11 16 21 49 12 44 -13 -1 -10 4 -33 11 -51 11 -26 11 -41 3 -70
-6 -20 -14 -49 -17 -65 l-5 -27 430 0 431 1 -7 22 c-4 12 -14 40 -24 62 -89
208 -107 255 -100 260 4 3 29 -48 55 -113 26 -64 50 -121 55 -127 4 -5 15 -31
25 -58 l18 -47 140 0 c131 0 139 1 126 17 -12 16 -110 119 -237 247 -38 39
-42 47 -32 65 6 12 16 21 22 21 6 0 9 2 6 5 -3 3 -22 -2 -42 -11 -35 -17 -36
-17 -61 6 -14 13 -25 34 -25 47 0 13 -9 31 -20 40 -11 10 -20 21 -20 25 0 5
-8 17 -17 27 -37 40 -45 52 -39 58 3 4 -5 21 -19 38 -40 53 -211 422 -200 433
3 3 5 -1 5 -8 0 -7 3 -10 7 -7 3 4 12 2 20 -4 15 -13 17 -1 3 21 -6 9 -5 17 3
22 9 6 7 11 -6 19 -21 12 -13 29 13 29 12 0 29 -17 45 -45 15 -24 52 -67 83
-94 31 -28 53 -53 49 -57 -4 -4 -26 0 -49 9 -23 9 -44 15 -46 12 -11 -11 41
-52 65 -52 25 0 74 -30 80 -50 2 -6 -7 -8 -24 -5 l-28 5 25 -28 c68 -73 224
-225 233 -225 5 0 28 18 50 41 22 22 60 52 84 66 l43 25 -19 26 c-24 35 -81
142 -81 153 0 23 21 3 69 -66 29 -41 65 -82 82 -90 33 -17 33 -20 18 -64 -10
-28 -8 -40 11 -82 13 -27 20 -52 17 -55 -4 -4 -15 12 -26 36 -18 39 -19 41
-26 19 -10 -30 -32 -52 -45 -44 -6 3 -13 -1 -16 -10 -8 -19 -64 -50 -64 -35 0
5 -10 10 -22 10 -21 0 -21 -1 -3 -14 18 -13 18 -14 -3 -25 -14 -8 -22 -8 -22
-1 0 5 -5 10 -11 10 -5 0 -8 -4 -4 -9 3 -5 1 -12 -5 -16 -21 -13 -9 -20 36
-22 36 -1 44 2 40 13 -13 33 19 6 133 -112 96 -100 125 -124 134 -115 9 10 9
12 -2 9 -8 -2 -17 5 -19 16 -2 11 0 16 7 12 6 -4 11 -2 11 4 0 28 18 -4 29
-52 11 -44 25 -67 76 -121 l62 -67 657 0 656 0 -1 1098 c-1 603 -3 1089 -6
1080 -6 -23 -43 -32 -98 -25 -25 4 -47 2 -50 -3 -10 -16 -25 -11 -18 6 5 13
-3 15 -49 13 -30 -1 -60 1 -67 5 -6 4 -35 7 -64 6 -61 -3 -97 7 -97 26 0 21
18 26 28 8 6 -11 12 -13 16 -5 5 8 12 7 26 -1 22 -14 52 5 43 28 -4 10 0 12
11 8 9 -3 28 -3 42 0 20 5 24 11 18 29 -3 12 -11 28 -18 36 -6 8 -9 24 -8 36
2 13 -2 26 -7 30 -7 3 -11 -2 -11 -14 0 -26 -16 -27 -30 -2 -14 27 -13 37 6
56 16 16 53 12 65 -7 13 -20 18 10 8 46 -11 39 -36 45 -32 8 2 -15 -2 -20 -12
-16 -18 7 -16 54 2 61 7 3 13 11 13 19 0 8 4 14 10 14 5 0 7 -7 4 -15 -4 -8 1
-17 10 -21 9 -3 16 -13 16 -21 0 -8 7 -21 15 -29 8 -9 15 -25 15 -37 0 -20 3
-19 26 11 24 31 27 32 40 15 7 -10 14 -26 14 -36 0 -10 7 -20 15 -23 9 -4 14
-17 13 -35 -2 -30 -13 -27 -21 6 -3 14 -5 11 -6 -10 -1 -24 6 -35 28 -48 37
-22 73 -23 65 -2 -4 8 -1 15 5 15 6 0 11 -6 11 -12 0 -9 3 -9 9 1 7 11 10 10
14 -5 2 -10 5 69 6 178 l1 196 -67 -24 c-38 -13 -76 -24 -85 -24 -10 0 -18 -5
-18 -10 0 -7 -6 -7 -19 0 -28 15 -46 13 -33 -3 13 -15 -8 -89 -27 -95 -13 -4
-15 24 -2 32 4 3 8 22 7 43 -1 38 -1 38 -38 35 -29 -3 -38 0 -38 12 0 11 -14
18 -42 23 -24 4 -46 6 -49 6 -31 -8 -139 -10 -139 -2 0 6 -67 8 -175 6 -97 -3
-178 -1 -180 3 -11 18 -108 -1 -137 -27 -12 -11 -18 -11 -23 -3 -4 7 -2 16 4
20 9 5 8 10 -4 20 -13 11 -15 9 -15 -16 0 -23 -7 -32 -31 -43 -37 -16 -48 -9
-14 9 14 7 25 17 25 21 0 13 -39 17 -54 5 -14 -10 -50 -82 -44 -88 2 -2 -5
-13 -14 -26 -12 -18 -30 -25 -78 -32 -35 -5 -77 -6 -94 -3 -46 8 -96 42 -96
64 0 12 -5 16 -15 13 -8 -3 -20 -2 -27 2 -7 5 -15 9 -18 9 -29 4 -50 19 -46
33 14 47 17 77 7 62 -5 -8 -11 -12 -13 -10 -2 3 -15 22 -28 42 -25 37 -42 49
-37 26 1 -7 -8 -14 -19 -16 -12 -2 -24 -11 -27 -21 -3 -14 -12 -17 -36 -13
-17 2 -39 1 -48 -3 -10 -5 -22 -9 -28 -11 -91 -23 -145 -29 -145 -15 0 23 84
51 164 56 24 2 45 9 52 20 8 11 25 18 44 17 20 0 30 4 30 14 0 12 -7 14 -29 9
-23 -5 -29 -2 -34 15 -5 21 -5 21 13 5 18 -16 18 -16 13 4 -6 25 5 28 21 5 13
-17 46 -9 46 11 0 8 8 16 18 19 21 6 239 25 302 26 25 1 56 1 69 2 13 0 27 -6
31 -12 6 -10 16 -9 46 1 22 7 77 13 124 14 47 1 106 5 133 10 32 5 47 4 47 -4
0 -19 68 -13 79 7 6 9 11 12 11 4 0 -9 14 -11 51 -7 28 3 54 7 59 10 5 3 11 1
15 -5 4 -6 35 -8 79 -5 l73 6 34 -46 c34 -45 34 -46 82 -40 67 8 85 -5 89 -63
4 -63 22 -56 26 11 l3 53 59 13 c33 8 60 16 60 20 0 12 41 32 52 25 8 -5 5
-10 -8 -15 -16 -6 -15 -8 9 -8 20 -1 27 4 27 18 0 18 45 39 57 27 3 -3 -6 -8
-21 -12 -14 -3 -26 -13 -26 -21 0 -8 6 -12 13 -9 6 3 20 9 30 12 16 6 17 47
17 675 l0 669 -2029 0 c-1324 0 -2032 -4 -2036 -10 -3 -6 -12 -10 -18 -10 -7
0 -6 4 3 10 10 6 -171 10 -522 10 -420 0 -537 -3 -541 -12 -4 -10 -6 -10 -6
-1 -1 10 -255 13 -1176 13 l-1175 0 0 -2100z m5150 1752 c0 -10 18 -27 47 -42
57 -30 106 -103 122 -182 7 -32 17 -61 23 -64 6 -4 8 -2 4 4 -10 17 13 25 31
11 8 -7 25 -18 37 -24 23 -12 28 -46 7 -53 -9 -3 -11 1 -6 17 5 17 2 21 -14
23 -12 0 -27 1 -33 2 -7 1 -12 -5 -10 -13 2 -9 -3 -11 -15 -6 -10 4 -62 10
-115 13 -85 4 -98 3 -98 -11 0 -9 -9 -19 -20 -22 -16 -5 -20 -15 -20 -56 0
-27 4 -49 8 -49 18 0 32 26 32 57 0 38 12 42 34 11 21 -29 20 -97 0 -148 -15
-36 -24 -45 -47 -41 -4 0 -6 -5 -5 -11 2 -9 -12 -14 -40 -16 -36 -3 -47 1 -72
27 -20 20 -30 24 -30 14 0 -8 13 -28 29 -44 24 -23 38 -29 74 -29 25 0 61 7
80 15 53 22 59 19 39 -19 -11 -22 -31 -40 -59 -52 -24 -11 -44 -26 -45 -34 0
-8 -2 -33 -4 -55 -2 -32 -10 -47 -43 -78 -37 -34 -43 -36 -56 -23 -8 8 -15 22
-15 30 0 9 -3 15 -7 14 -5 -1 -18 4 -30 12 -16 10 -21 21 -17 37 6 21 3 23
-27 23 -19 0 -48 -4 -66 -9 -39 -11 -64 9 -46 37 8 13 7 21 -4 31 -18 16 -12
33 15 47 27 13 18 24 -19 24 -18 0 -30 6 -34 19 -3 10 -19 21 -35 25 -38 7
-41 42 -6 78 12 14 26 33 29 42 4 9 11 16 18 16 6 0 9 -7 5 -15 -3 -8 -1 -15
4 -15 6 0 10 -8 10 -18 0 -11 8 -18 20 -19 16 -1 20 4 20 31 0 17 6 38 12 44
7 7 13 20 13 30 0 20 47 45 69 36 9 -3 16 -15 16 -25 0 -14 7 -19 30 -19 19 0
30 5 30 14 0 17 56 66 76 66 8 0 14 6 14 13 0 19 -97 11 -243 -19 -123 -25
-207 -57 -207 -79 0 -7 -7 -15 -15 -19 -20 -7 -19 8 1 29 23 23 122 85 137 86
6 0 3 4 -7 8 -17 7 -17 9 9 29 18 14 22 22 13 22 -9 0 -21 -7 -28 -15 -21 -25
-26 -17 -28 44 l-2 59 57 59 c32 33 70 67 86 77 35 21 111 36 212 40 46 2 81
8 83 15 6 18 22 13 22 -7z m-4045 -453 c44 -12 94 -25 110 -30 17 -4 55 -14
85 -22 30 -8 127 -36 215 -62 133 -38 466 -134 605 -173 19 -5 89 -26 155 -46
176 -53 329 -99 510 -151 236 -69 265 -78 265 -86 0 -3 -46 7 -102 23 -57 17
-116 32 -133 35 -16 3 -45 11 -63 19 -18 8 -37 12 -42 9 -6 -4 -17 0 -25 8 -8
8 -38 18 -67 22 -29 4 -65 14 -80 21 -47 24 -280 84 -305 78 -15 -4 -25 -1
-28 8 -3 8 -38 24 -78 36 -180 54 -255 75 -312 88 -68 15 -143 34 -165 42 -8
3 -22 6 -31 8 -9 2 -38 13 -65 24 -32 14 -50 18 -52 10 -3 -8 -11 -7 -25 3
-12 7 -35 14 -52 15 -16 1 -35 9 -41 17 -6 8 -17 15 -24 15 -12 0 -108 28
-274 81 -33 11 -68 19 -78 19 -10 0 -18 5 -18 11 0 6 8 8 18 5 9 -3 53 -15 97
-27z m5275 -60 c0 -7 10 -9 24 -7 30 6 36 -7 30 -64 -5 -58 2 -77 26 -71 11 3
20 11 20 17 0 7 14 11 35 11 47 -2 56 -13 17 -21 -17 -4 -37 -13 -43 -20 -6
-8 -16 -14 -21 -14 -5 0 -39 -14 -76 -31 -96 -45 -103 -47 -147 -54 -22 -3
-49 -8 -60 -11 -17 -3 -16 -2 3 7 26 14 29 29 5 30 -17 1 -17 2 0 6 9 2 17 8
17 13 0 4 16 11 35 14 19 4 35 11 35 17 0 6 4 7 10 4 5 -3 21 2 35 11 14 9 25
14 25 11 0 -3 14 0 32 7 25 11 31 20 32 45 1 27 -2 31 -18 27 -16 -4 -17 0
-12 25 6 32 -10 40 -22 11 -6 -17 -10 -18 -42 -4 l-35 14 35 19 c40 21 60 24
60 8z m-3888 -111 c35 1 47 -21 24 -44 -12 -12 -26 -14 -51 -10 -29 6 -34 4
-29 -9 3 -8 12 -15 20 -15 8 0 15 -6 16 -12 4 -37 19 -78 29 -78 4 0 6 10 3
23 -11 47 -9 52 19 55 15 2 27 10 27 17 0 8 4 16 8 19 5 3 8 -5 8 -17 -1 -15
4 -21 15 -19 12 2 18 -7 22 -35 5 -41 -6 -64 -24 -46 -13 13 -59 4 -59 -13 0
-19 -16 -25 -45 -18 -22 5 -26 11 -20 31 5 21 3 24 -13 19 -36 -12 -123 39
-108 63 4 5 -1 14 -10 19 -13 7 -10 12 20 30 19 12 38 17 41 12 9 -14 43 1 48
22 4 13 10 17 18 13 6 -5 25 -8 41 -7z m3005 -282 c-21 -57 -15 -73 17 -41 23
23 32 -2 9 -27 -18 -20 -18 -20 15 -13 22 4 32 3 32 -5 0 -15 51 -4 62 13 11
16 30 -12 24 -35 -3 -13 2 -18 16 -18 15 0 18 3 10 13 -14 18 -1 42 26 44 26
3 28 -7 7 -47 -9 -18 -11 -31 -5 -35 22 -14 8 -25 -33 -25 -78 0 -195 -92
-210 -165 -3 -14 -5 -12 -6 8 0 16 10 48 24 73 25 45 25 55 -1 29 -23 -23 -35
-18 -28 11 5 21 4 25 -6 19 -10 -6 -11 8 -5 71 4 43 7 93 6 111 -1 23 3 33 16
35 23 6 36 -1 30 -16z m-1795 -51 c4 -6 8 -2 8 8 0 17 4 16 31 -7 17 -14 36
-26 42 -26 40 -2 96 -95 57 -95 -8 0 -19 -6 -23 -12 -12 -19 -27 -16 -27 5 0
17 -49 47 -59 36 -3 -3 7 -16 22 -28 l29 -23 -44 7 c-83 14 -162 42 -181 66
-10 13 -25 24 -33 24 -8 0 -12 5 -9 10 3 6 15 10 26 10 10 0 19 6 19 14 0 16
28 42 36 33 3 -3 1 -14 -5 -25 -7 -13 -7 -22 1 -30 17 -17 38 -14 38 5 0 13 3
14 12 5 10 -10 10 -17 0 -32 -17 -27 -15 -32 8 -25 13 4 20 2 20 -6 0 -10 3
-10 11 -2 19 19 13 83 -10 104 -12 11 -21 23 -21 26 0 7 40 -26 52 -42z m1094
17 c-13 -22 -58 -275 -58 -328 0 -22 -4 -34 -11 -31 -8 3 -11 29 -9 78 l2 74
-21 -55 c-12 -30 -23 -65 -26 -77 -3 -13 -9 -23 -14 -23 -5 0 -9 -7 -9 -15 0
-31 -18 -13 -22 22 -3 27 1 43 14 57 20 22 18 43 -3 38 -8 -1 -1 9 16 22 21
18 31 22 37 13 5 -8 8 -7 8 6 0 9 6 17 14 17 13 0 27 49 52 178 4 18 13 32 21
32 8 0 12 -4 9 -8z m284 -39 c-1 -16 -118 -217 -129 -221 -9 -3 -14 86 -11
186 0 4 11 8 25 9 13 1 36 9 52 17 30 16 63 21 63 9z m-5005 -33 c-2 -12 2
-20 10 -20 7 0 16 -7 19 -15 4 -12 10 -14 25 -5 27 14 31 13 31 -11 0 -17 4
-19 23 -13 12 3 24 11 25 15 4 11 22 12 22 1 0 -4 -13 -16 -30 -25 -23 -14
-31 -28 -36 -58 -4 -23 -13 -43 -21 -46 -8 -3 -12 -13 -9 -22 4 -11 2 -10 -9
3 -20 26 -19 38 3 34 13 -2 18 5 20 31 2 18 -1 38 -7 44 -8 8 -11 4 -11 -15 0
-14 -7 -31 -15 -38 -8 -7 -15 -20 -16 -29 0 -9 -7 -2 -14 15 -8 18 -26 41 -40
52 -21 17 -25 28 -25 71 0 50 1 51 29 51 24 0 29 -4 26 -20z m3521 -296 c27
-9 54 -20 59 -24 6 -4 25 -11 43 -15 25 -5 32 -12 32 -31 0 -17 6 -24 18 -24
25 0 34 -11 22 -25 -12 -14 -16 -175 -7 -253 4 -29 14 -70 24 -89 9 -20 17
-54 17 -76 1 -23 6 -42 14 -45 6 -2 12 -8 12 -14 0 -6 -8 -4 -18 5 -25 23 -32
21 -32 -7 0 -17 5 -23 18 -22 11 1 17 -6 17 -21 0 -11 3 -25 8 -29 4 -4 7 7 7
24 0 18 5 32 11 32 7 0 9 -9 5 -22 -3 -13 -6 -43 -6 -66 0 -36 -4 -45 -20 -49
-15 -4 -18 -9 -10 -18 8 -10 8 -15 0 -20 -8 -5 -6 -13 6 -26 16 -17 16 -19 1
-19 -10 0 -17 -6 -17 -14 0 -8 -3 -21 -6 -30 -4 -12 0 -16 15 -16 14 0 21 6
21 18 0 28 11 34 36 17 14 -9 25 -11 29 -5 3 6 18 7 33 4 21 -4 24 -3 12 5
-17 12 -6 14 27 5 12 -3 19 -12 17 -19 -3 -7 -1 -16 5 -20 7 -4 11 4 11 21 0
22 3 24 14 15 11 -9 12 -20 5 -44 -5 -18 -14 -60 -20 -94 l-11 -63 -49 0 c-34
0 -51 5 -55 14 -3 8 -12 12 -20 9 -9 -3 -14 2 -14 15 0 12 -5 24 -10 27 -6 4
-10 14 -9 23 5 52 -1 63 -28 60 -25 -3 -28 0 -26 26 2 29 2 29 -13 8 -8 -12
-22 -36 -30 -54 -16 -36 -15 -20 4 54 7 28 7 35 -3 32 -15 -6 -25 39 -18 81 4
21 2 27 -5 20 -6 -5 -12 -26 -15 -45 -2 -19 -5 -2 -5 38 -2 78 -22 102 -22 26
0 -30 -4 -44 -12 -42 -6 2 -23 -7 -37 -21 l-26 -26 -3 24 c-2 15 3 28 12 33 9
5 16 14 16 20 0 7 -5 7 -12 1 -7 -5 -28 -8 -45 -7 -23 2 -33 -2 -33 -12 0 -8
-4 -14 -10 -14 -5 0 -10 -8 -10 -17 0 -10 -7 -27 -16 -38 -13 -17 -16 -18 -24
-5 -6 8 -8 25 -5 37 3 13 0 32 -7 44 -10 17 -10 23 0 26 6 3 12 11 12 19 0 17
22 18 38 2 9 -9 12 -9 14 3 0 7 2 19 2 25 1 6 19 27 41 47 39 36 40 36 46 14
6 -20 7 -20 13 8 4 17 9 36 12 43 5 19 -21 14 -40 -7 -10 -11 -24 -17 -31 -15
-10 4 -12 -1 -8 -15 4 -18 1 -21 -23 -21 -27 1 -28 1 -10 15 16 12 17 17 6 30
-15 18 -5 64 18 82 16 12 16 14 -2 28 -28 21 -45 19 -56 -7 l-9 -23 0 23 c-1
12 -4 22 -8 22 -13 0 -46 -77 -39 -89 4 -6 1 -11 -8 -11 -8 0 -17 -14 -21 -32
-9 -40 -22 -58 -44 -58 -13 1 -13 3 4 16 17 13 18 16 5 25 -13 8 -11 13 13 34
15 13 30 39 34 57 9 46 60 118 84 118 20 0 23 8 13 35 -5 13 -9 14 -15 4 -15
-25 -22 0 -9 32 11 26 11 32 -1 40 -8 5 -20 7 -27 4 -8 -3 -12 0 -9 7 2 7 10
12 18 11 8 -2 23 14 35 35 18 33 19 40 7 65 -8 15 -18 27 -24 27 -15 0 -10 76
6 90 18 15 19 37 3 43 -34 14 55 5 98 -9z m3469 -169 c-9 -5 -26 -18 -37 -27
-12 -10 -27 -18 -33 -18 -7 0 -32 -18 -56 -40 -24 -22 -52 -43 -61 -46 -10 -3
-18 -14 -18 -25 0 -11 -7 -19 -17 -19 -10 0 -29 -9 -42 -19 -21 -16 -23 -23
-15 -42 l11 -23 14 29 c8 17 21 30 29 30 19 0 25 -39 8 -52 -22 -17 -180 -62
-230 -65 -44 -3 -64 5 -37 14 8 3 6 10 -5 20 -17 18 -22 33 -7 24 5 -3 14 1
21 10 7 8 19 13 27 10 7 -3 13 0 13 7 0 18 37 39 46 26 9 -15 -16 -38 -46 -42
-32 -5 -42 -47 -11 -47 11 0 23 5 26 10 4 6 16 10 27 8 12 -2 23 3 25 10 3 6
-3 12 -13 12 -15 0 -15 3 4 23 12 13 22 28 22 34 0 6 7 13 15 17 8 3 14 11 13
18 -2 8 9 14 25 16 22 3 27 8 27 32 0 28 -24 48 -35 30 -4 -6 -15 -10 -25 -10
-10 0 -23 -7 -28 -16 -5 -8 -24 -19 -43 -24 -97 -26 -125 -36 -125 -45 0 -5 6
-9 13 -7 8 2 10 -3 7 -13 -3 -8 -17 -15 -30 -15 -17 0 -22 4 -18 15 7 18 -4
19 -43 4 -15 -6 -48 -15 -73 -19 -25 -5 -55 -12 -67 -16 -14 -4 -23 -2 -23 5
0 6 7 11 15 11 8 0 15 4 15 10 0 5 -8 6 -17 3 -12 -5 -15 -2 -10 10 4 10 1 17
-6 17 -18 0 -51 91 -36 100 6 4 43 6 82 4 51 -2 77 2 88 12 8 7 31 13 50 12
19 0 44 4 56 10 22 12 47 14 122 10 33 -2 46 -8 52 -23 6 -15 8 -16 8 -4 1 15
15 17 108 15 77 -1 107 2 110 12 3 6 12 12 21 12 17 1 113 49 99 50 -5 0 -5 5
-1 12 5 7 10 3 16 -13 7 -18 5 -26 -7 -34z m-3053 -35 c13 -18 38 -35 63 -42
22 -7 48 -21 57 -31 11 -12 24 -17 37 -12 16 5 22 1 27 -19 3 -14 10 -26 16
-26 5 0 7 9 3 19 -6 19 -4 19 37 -2 24 -11 49 -20 56 -19 7 2 12 -8 12 -27 0
-23 -7 -34 -30 -48 -16 -9 -30 -21 -30 -25 0 -4 -27 -21 -60 -38 l-60 -31 73
-82 c41 -46 76 -89 79 -97 3 -11 11 -10 36 5 31 19 32 19 50 0 10 -11 34 -34
53 -50 39 -34 50 -59 73 -160 67 -301 67 -299 31 -265 -14 13 -25 30 -25 38 0
9 -3 13 -6 9 -7 -6 -256 243 -287 288 -10 14 -22 23 -28 20 -5 -4 -9 -1 -9 4
0 6 9 11 20 11 50 0 22 64 -59 135 -42 37 -46 41 -94 94 -21 24 -41 40 -44 37
-6 -6 43 -70 94 -121 19 -19 33 -38 29 -42 -3 -3 -14 4 -25 15 -10 12 -22 22
-26 22 -5 0 1 -10 12 -22 33 -38 36 -48 17 -63 -25 -18 -41 -9 -54 31 -9 26
-9 38 0 48 7 9 7 16 1 20 -5 4 -12 2 -16 -4 -4 -6 -11 -8 -16 -5 -5 4 -9 1 -9
-6 0 -6 -8 -9 -19 -6 -15 4 -21 -1 -24 -22 -4 -24 -4 -23 -6 5 0 17 5 37 13
44 8 6 12 19 9 27 -5 13 -2 15 11 10 28 -11 14 13 -19 31 -17 9 -31 17 -32 17
-1 0 -4 12 -8 26 -6 22 -3 27 18 33 19 4 24 11 20 25 -3 12 3 26 16 37 32 28
28 44 -36 134 -10 13 -12 21 -5 16 7 -4 15 -1 18 9 4 9 16 21 28 26 20 9 20 9
1 6 -25 -5 -47 16 -39 37 9 25 31 19 56 -14z m2222 -92 c40 -113 42 -139 14
-210 -12 -33 -19 -36 -132 -48 -98 -11 -176 -10 -176 3 0 4 5 7 10 7 6 0 10 5
10 11 0 6 -9 8 -20 4 -14 -5 -26 0 -39 16 -21 26 -51 20 -51 -11 0 -24 -35
-28 -44 -4 -13 34 -7 44 30 44 27 0 37 5 41 20 7 26 23 26 23 0 0 -13 15 -26
49 -41 36 -17 47 -27 43 -38 -5 -13 -2 -12 12 2 16 16 35 16 83 2 7 -2 15 0
18 5 4 6 15 10 25 10 11 0 24 8 29 19 8 15 7 18 -7 17 -9 -1 -27 -7 -38 -13
-23 -13 -34 -8 -34 15 0 9 -7 24 -17 34 -15 17 -15 18 10 18 14 0 29 -4 32
-10 9 -15 25 -12 25 4 0 8 -7 17 -16 20 -10 4 -14 12 -10 22 4 10 1 14 -6 11
-7 -2 -12 -12 -12 -21 2 -12 -1 -14 -10 -6 -7 5 -16 7 -19 3 -4 -3 -7 1 -7 10
0 9 10 22 23 28 32 17 66 61 67 86 0 17 7 23 33 26 17 2 35 5 39 5 3 1 13 -17
22 -40z m-3426 -104 c7 -59 9 -65 16 -39 4 16 12 33 18 36 13 8 48 0 48 -11 0
-5 -9 -6 -20 -3 -17 4 -20 0 -20 -23 0 -16 7 -42 15 -57 13 -26 13 -28 -10
-37 -14 -5 -25 -15 -25 -21 0 -8 -5 -7 -17 2 -15 13 -15 12 -5 -8 15 -28 15
-33 -2 -33 -15 0 -29 34 -27 62 1 9 -5 27 -13 40 -10 16 -12 28 -6 38 13 20
13 43 0 35 -5 -3 -10 -1 -10 4 0 6 5 11 10 11 6 0 10 23 10 52 0 48 1 51 16
37 9 -10 18 -44 22 -85z m1772 -248 c0 -8 8 -17 19 -21 12 -4 17 -13 14 -28
-5 -29 97 -143 121 -134 23 9 27 -6 10 -32 -13 -18 -18 -20 -31 -9 -14 11 -15
8 -10 -22 3 -19 8 -46 13 -60 7 -23 6 -24 -9 -11 -10 7 -16 21 -15 29 2 9 -5
18 -15 20 -15 3 -18 -2 -15 -28 2 -25 29 -59 125 -158 103 -107 126 -137 148
-192 15 -36 39 -94 55 -130 53 -120 128 -315 124 -319 -3 -3 -34 25 -70 62
-37 37 -61 67 -55 67 7 0 9 5 6 10 -4 6 -11 8 -16 5 -8 -6 -74 58 -200 194
-49 53 -61 74 -87 154 -43 133 -60 242 -43 270 10 15 10 22 2 25 -6 2 -11 8
-11 13 0 6 -12 21 -26 34 -22 20 -26 34 -29 88 -2 63 -23 128 -26 82 0 -11 -7
4 -15 34 -12 44 -13 56 -2 62 20 13 38 11 38 -5z m1270 -19 c0 -5 7 -4 15 3
12 10 15 7 20 -12 4 -13 5 -28 4 -34 -1 -5 0 -13 1 -19 2 -5 4 -23 5 -40 3
-57 37 -260 46 -277 12 -22 12 -55 0 -42 -5 5 -11 18 -14 29 -4 16 -5 14 -6
-6 -1 -24 -6 -27 -47 -34 l-47 -7 7 -101 c4 -56 9 -127 11 -158 1 -31 6 -62
10 -68 4 -7 1 -18 -5 -26 -10 -12 -16 -6 -35 32 -28 55 -41 118 -26 128 6 3
11 -1 11 -11 0 -10 3 -15 6 -11 5 5 -6 91 -22 180 -4 20 -2 27 9 27 22 0 26
21 8 42 -9 10 -23 51 -32 91 -14 66 -17 72 -40 70 -13 -1 -16 1 -7 3 21 7 26
29 16 79 -4 22 -10 68 -13 102 l-6 62 33 3 c64 6 98 4 98 -5z m-4517 -47 c-4
-16 -2 -19 11 -14 11 4 16 1 16 -10 0 -9 -7 -16 -15 -16 -14 0 -13 -3 1 -25 9
-14 14 -34 11 -45 -3 -10 1 -24 9 -31 11 -9 14 -8 14 5 0 10 7 24 15 32 10 10
15 11 15 3 0 -8 5 -8 17 2 9 8 19 14 22 14 14 0 17 -120 4 -140 -12 -17 -13
-14 -14 35 -1 46 -3 50 -9 25 -15 -58 -11 -101 10 -120 24 -21 22 -54 -4 -80
-17 -17 -18 -17 -43 1 -19 15 -26 29 -27 61 -1 24 1 48 6 55 6 10 8 10 8 1 0
-7 7 -13 15 -13 25 0 17 18 -15 32 -29 13 -40 28 -20 28 6 0 10 9 10 19 0 13
-6 18 -17 17 -12 -2 -17 -10 -15 -26 2 -14 0 -20 -7 -16 -6 4 -11 14 -11 22 0
8 -7 17 -15 20 -18 7 -20 41 -3 46 8 3 14 26 15 59 2 78 2 79 12 79 5 0 7 -9
4 -20z m4109 -16 c21 -4 35 -10 33 -15 -3 -4 4 -10 15 -14 11 -4 18 -11 15
-16 -4 -5 1 -9 9 -9 8 0 18 -4 21 -10 4 -6 -22 -9 -69 -9 -86 1 -96 -3 -96
-37 0 -13 -2 -24 -5 -24 -3 0 -29 14 -58 30 -61 34 -67 36 -67 15 0 -8 -8 -15
-17 -15 -18 0 -57 -48 -68 -85 -4 -12 7 -5 29 20 20 22 36 43 36 47 0 3 14 11
31 17 25 8 30 8 26 -2 -3 -9 23 -24 79 -46 46 -18 84 -36 84 -39 0 -3 -13 -17
-29 -31 -27 -24 -30 -33 -35 -108 -4 -69 -3 -83 9 -83 8 0 15 -7 15 -16 0 -11
-8 -14 -26 -12 -21 2 -29 12 -44 58 -22 62 -25 100 -9 100 16 0 5 25 -12 26
-20 1 -67 23 -51 23 17 1 15 42 -4 69 -20 28 -34 28 -34 0 0 -15 -11 -29 -30
-40 -16 -9 -32 -28 -36 -42 -8 -33 -18 -33 -32 -1 -17 36 -15 44 13 81 30 40
30 42 3 65 -11 11 -17 19 -12 19 5 0 7 23 5 51 l-3 52 138 -6 c77 -4 156 -9
176 -13z m-2028 -114 c7 -45 25 -54 27 -12 l1 27 7 -25 c5 -18 14 -24 29 -23
12 2 22 -2 22 -7 0 -6 -6 -10 -14 -10 -12 0 -13 -6 -4 -32 6 -18 12 -52 13
-74 1 -23 5 -46 7 -50 3 -5 5 -27 4 -49 -1 -22 2 -48 6 -57 4 -9 4 -19 -1 -22
-13 -8 -25 22 -27 69 -3 64 -3 65 -16 65 -14 0 -48 -74 -48 -103 0 -9 -5 -17
-11 -17 -7 0 -10 29 -8 83 1 45 -1 89 -5 98 -4 10 -6 25 -4 35 2 11 -2 18 -8
17 -7 -1 -14 6 -17 17 -3 13 1 21 15 26 18 5 20 12 14 51 -7 55 9 49 18 -7z
m811 -70 c-4 -6 -12 -7 -18 -3 -8 4 -7 1 1 -9 9 -11 11 -29 7 -51 -5 -24 -2
-42 9 -59 15 -23 15 -27 -1 -58 -9 -19 -18 -29 -21 -22 -2 7 2 20 9 28 10 12
10 17 1 23 -7 4 -10 15 -6 24 11 29 -10 18 -34 -17 -13 -18 -25 -49 -29 -69
-5 -33 -7 -35 -27 -24 -25 14 -36 28 -30 38 2 4 0 10 -5 13 -5 3 -12 -1 -15
-9 -5 -13 -10 -14 -28 -4 -21 11 -21 12 -3 26 17 12 18 16 7 34 -9 15 -10 24
-3 33 6 7 10 30 8 51 -1 23 3 40 11 42 6 3 12 -2 12 -11 0 -21 16 -20 29 2 10
16 12 16 28 -4 l18 -22 25 29 c23 26 69 42 55 19z m-402 -194 c3 3 14 1 24 -4
13 -8 22 -7 35 5 24 22 23 2 -2 -30 -19 -24 -19 -27 -3 -63 12 -28 18 -34 21
-21 4 18 37 24 47 7 3 -5 16 -10 28 -10 19 0 18 3 -10 20 -18 11 -33 27 -33
37 0 13 5 11 28 -10 15 -15 36 -27 45 -27 27 0 22 -71 -9 -131 -22 -44 -25
-64 -26 -152 -1 -88 -4 -105 -25 -135 -12 -19 -23 -39 -23 -44 0 -5 -9 -6 -20
-3 -14 5 -20 2 -20 -9 0 -9 -5 -16 -10 -16 -6 0 -8 11 -4 28 7 24 6 26 -9 13
-10 -7 -17 -10 -17 -7 0 4 -5 4 -12 0 -27 -17 -115 -4 -103 15 3 5 1 12 -4 15
-5 4 -12 2 -16 -4 -9 -15 -35 -12 -35 4 0 22 37 30 72 15 25 -10 31 -10 39 2
5 8 4 18 -2 24 -6 6 -13 5 -19 -4 -7 -12 -11 -12 -24 -2 -21 17 -21 35 0 27
23 -9 37 3 23 20 -8 10 -9 18 0 27 6 8 13 45 15 83 4 65 4 67 -10 42 -8 -16
-21 -28 -29 -28 -8 0 -15 -9 -15 -19 0 -11 -4 -23 -10 -26 -6 -4 -10 8 -10 30
0 26 4 34 13 29 10 -6 10 -4 0 7 -7 7 -13 21 -13 31 0 9 -7 21 -15 25 -8 5
-21 25 -30 46 -15 37 -15 39 5 44 11 3 20 11 20 18 0 8 9 16 19 20 27 8 34 33
18 65 -13 25 -13 27 4 23 22 -6 34 -39 22 -56 -16 -22 -16 -67 0 -67 28 0 46
12 40 26 -3 8 -2 21 1 30 5 13 9 14 21 4 18 -15 21 1 4 31 -7 14 -16 18 -30
14 -10 -4 -19 -2 -19 4 0 5 -8 18 -17 27 -17 17 -17 18 0 11 13 -5 17 -1 17
14 l0 20 29 -20 c15 -11 31 -18 34 -15z m-2073 -127 c0 -14 5 -19 15 -16 19 8
75 -60 67 -81 -3 -10 -1 -13 6 -8 8 5 12 -1 12 -16 0 -15 -9 -27 -26 -35 -30
-14 -57 -6 -50 13 3 8 2 14 -3 14 -5 0 -11 -8 -14 -18 -5 -20 -47 -37 -47 -20
0 5 9 12 20 15 19 5 20 7 5 24 -14 14 -15 30 -10 83 4 36 11 66 16 66 5 0 9
-9 9 -21z m2535 -359 c-3 -5 -25 -10 -48 -11 l-42 -1 33 -14 c36 -16 107 -10
95 9 -4 7 8 8 38 3 24 -4 44 -8 45 -9 8 -8 7 -72 -1 -72 -29 -2 -123 -37 -145
-54 -21 -16 -26 -31 -30 -83 -3 -43 -9 -62 -17 -61 -15 3 -17 -9 -3 -23 5 -5
6 -15 1 -22 -6 -9 -17 1 -39 35 -29 44 -32 46 -32 21 0 -15 5 -30 11 -33 7 -5
6 -12 -4 -23 -27 -31 -32 -98 -25 -370 0 -12 -8 -34 -17 -48 -14 -21 -19 -24
-26 -13 -5 8 -9 10 -9 6 0 -5 -5 -5 -11 -2 -7 5 -6 14 4 28 7 12 14 51 15 87
1 36 6 117 12 180 6 63 8 156 5 206 -3 66 -1 99 9 118 14 28 58 66 76 66 6 0
20 5 31 11 20 10 19 11 -5 30 -15 11 -26 24 -26 29 0 5 24 11 53 13 28 2 53 4
55 5 2 1 0 -2 -3 -8z m-2629 -314 c0 -46 -4 -82 -8 -79 -18 11 -20 -31 -3 -43
10 -8 13 -14 7 -14 -18 0 -15 -79 3 -86 8 -4 15 -17 15 -29 0 -13 5 -27 11
-31 6 -3 9 -14 6 -24 -2 -10 -1 -24 4 -31 7 -11 9 -10 9 4 0 9 5 17 10 17 13
0 13 -3 -2 -35 -16 -36 -45 -33 -43 5 2 28 -13 44 -17 18 0 -7 -2 -17 -3 -23
-2 -5 -3 -16 -4 -24 -1 -10 -4 -11 -14 -2 -8 6 -17 8 -20 4 -4 -3 -6 28 -4 70
2 61 4 73 15 64 11 -9 12 -4 8 24 -4 19 -8 62 -10 96 -2 34 -7 66 -10 72 -4 5
3 13 15 16 13 4 18 12 15 21 -4 12 14 94 20 94 1 0 1 -38 0 -84z m3047 -118
c-14 -18 -22 -67 -12 -74 5 -3 9 7 9 21 0 15 7 33 15 41 13 14 15 13 16 -8 1
-13 0 -35 -1 -50 -1 -14 3 -29 9 -33 16 -9 13 -100 -4 -142 -12 -28 -18 -33
-28 -24 -8 6 -16 8 -20 5 -3 -3 -3 4 0 16 6 22 5 22 -26 5 -26 -13 -35 -14
-47 -4 -12 9 -12 14 -3 20 10 6 10 11 0 23 -11 14 -11 16 4 16 13 0 16 -6 13
-25 -7 -33 10 -32 22 1 13 33 13 31 -11 37 -13 4 -19 11 -16 19 2 8 -1 22 -9
33 -19 25 -18 38 6 65 l20 23 -6 -31 c-4 -21 -3 -32 5 -32 11 0 16 19 12 54
-2 23 26 56 47 56 10 0 12 -4 5 -12z"/>
<path d="M5993 2839 c-51 -15 -39 -22 25 -16 49 5 52 4 22 -5 -19 -5 -45 -14
-57 -19 -15 -5 -23 -5 -23 1 0 6 -7 10 -15 10 -22 0 -18 -34 5 -55 14 -13 34
-18 66 -17 28 2 43 -2 39 -8 -3 -5 -16 -10 -27 -10 l-21 0 21 -23 c19 -20 20
-25 7 -37 -19 -20 -3 -49 17 -32 11 9 17 9 26 0 18 -18 15 -26 -10 -30 -13 -2
-23 -10 -23 -18 0 -33 101 -22 115 13 9 22 9 22 9 -2 1 -21 4 -23 39 -17 20 4
42 14 47 23 6 8 25 33 43 55 42 52 41 63 -6 62 -44 -1 -62 -9 -62 -30 0 -8 -4
-15 -10 -15 -20 -3 -25 -4 -37 -12 -8 -5 -13 -4 -13 2 0 6 -5 11 -11 11 -6 0
-9 -7 -5 -15 3 -9 0 -15 -10 -15 -8 0 -17 -7 -20 -15 -9 -23 -23 -8 -22 25 1
23 6 30 22 30 12 0 27 4 35 9 19 12 3 33 -20 26 -31 -10 -22 12 11 27 26 11
30 18 28 46 -2 31 -3 32 -50 32 -57 0 -65 17 -10 23 21 2 10 4 -28 4 -36 1
-80 -3 -97 -8z"/>
<path d="M3913 522 c-27 -13 -34 -24 -43 -65 -6 -28 -23 -75 -39 -106 -20 -38
-31 -78 -36 -126 -7 -75 -10 -103 -20 -178 l-6 -47 44 0 c54 0 57 6 57 103 0
40 6 101 14 137 7 36 19 102 26 147 14 83 19 91 67 97 16 1 13 16 -6 39 -18
19 -15 19 -58 -1z"/>
</g>
</svg>
